<?xml version="1.0" encoding="UTF-8" standalone="no"?>
<!-- Created with Inkscape (http://www.inkscape.org/) -->

<svg
   xmlns:dc="http://purl.org/dc/elements/1.1/"
   xmlns:cc="http://creativecommons.org/ns#"
   xmlns:rdf="http://www.w3.org/1999/02/22-rdf-syntax-ns#"
   xmlns:svg="http://www.w3.org/2000/svg"
   xmlns="http://www.w3.org/2000/svg"
   xmlns:sodipodi="http://sodipodi.sourceforge.net/DTD/sodipodi-0.dtd"
   xmlns:inkscape="http://www.inkscape.org/namespaces/inkscape"
   width="936mm"
   height="200mm"
   viewBox="0 0 936 200"
   version="1.1"
   id="svg2284"
   inkscape:version="0.92.3 (2405546, 2018-03-11)"
   sodipodi:docname="logo-extended-black.svg">
  <defs
     id="defs2278" />
  <sodipodi:namedview
     id="base"
     pagecolor="#ffffff"
     bordercolor="#666666"
     borderopacity="1.0"
     inkscape:pageopacity="0.0"
     inkscape:pageshadow="2"
     inkscape:zoom="0.056568545"
     inkscape:cx="-4272.6123"
     inkscape:cy="1334.688"
     inkscape:document-units="mm"
     inkscape:current-layer="layer1"
     showgrid="false"
     inkscape:window-width="1680"
     inkscape:window-height="987"
     inkscape:window-x="1358"
     inkscape:window-y="-8"
     inkscape:window-maximized="1"
     showguides="true"
     inkscape:guide-bbox="true">
    <sodipodi:guide
       position="0,0"
       orientation="0,1"
       id="guide904"
       inkscape:locked="false"
       inkscape:label=""
       inkscape:color="rgb(0,0,255)" />
    <sodipodi:guide
       position="0,100"
       orientation="0,1"
       id="guide912"
       inkscape:locked="false"
       inkscape:label=""
       inkscape:color="rgb(0,0,255)" />
    <sodipodi:guide
       position="0,150"
       orientation="0,1"
       id="guide916"
       inkscape:locked="false"
       inkscape:label=""
       inkscape:color="rgb(0,0,255)" />
    <sodipodi:guide
       position="0,50"
       orientation="0,1"
       id="guide918"
       inkscape:locked="false"
       inkscape:label=""
       inkscape:color="rgb(0,0,255)" />
    <sodipodi:guide
       position="0,75"
       orientation="0,1"
       id="guide997"
       inkscape:locked="false"
       inkscape:label=""
       inkscape:color="rgb(0,0,255)" />
    <sodipodi:guide
       position="0,125"
       orientation="0,1"
       id="guide999"
       inkscape:locked="false"
       inkscape:label=""
       inkscape:color="rgb(0,0,255)" />
    <sodipodi:guide
       position="0,200"
       orientation="0,1"
       inkscape:locked="false"
       id="guide1350"
       inkscape:label=""
       inkscape:color="rgb(0,0,255)" />
    <sodipodi:guide
       position="950.00005,-0.00012207031"
       orientation="1,0"
       id="guide945"
       inkscape:locked="false" />
    <sodipodi:guide
       position="150,-0.00012054443"
       orientation="1,0"
       id="guide947"
       inkscape:locked="false" />
    <sodipodi:guide
       position="170,-0.00012054443"
       orientation="1,0"
       id="guide949"
       inkscape:locked="false" />
    <sodipodi:guide
       position="369.99999,-0.00012054443"
       orientation="1,0"
       id="guide951"
       inkscape:locked="false" />
    <sodipodi:guide
       position="389.99999,-0.00012054443"
       orientation="1,0"
       id="guide953"
       inkscape:locked="false" />
    <sodipodi:guide
       position="439.99999,-0.00012054443"
       orientation="1,0"
       id="guide955"
       inkscape:locked="false" />
    <sodipodi:guide
       position="459.99999,-0.00012054443"
       orientation="1,0"
       id="guide957"
       inkscape:locked="false" />
    <sodipodi:guide
       position="609.99998,-0.00012054443"
       orientation="1,0"
       id="guide959"
       inkscape:locked="false" />
    <sodipodi:guide
       position="629.99998,-0.00012054443"
       orientation="1,0"
       id="guide961"
       inkscape:locked="false" />
    <sodipodi:guide
       position="779.99998,-0.00012054443"
       orientation="1,0"
       id="guide965"
       inkscape:locked="false" />
    <sodipodi:guide
       position="799.99998,-0.00012054443"
       orientation="1,0"
       id="guide967"
       inkscape:locked="false" />
    <sodipodi:guide
       position="74.999999,0"
       orientation="1,0"
       id="guide969"
       inkscape:locked="false"
       inkscape:label=""
       inkscape:color="rgb(0,0,255)" />
    <sodipodi:guide
       position="270,0"
       orientation="1,0"
       id="guide971"
       inkscape:locked="false"
       inkscape:label=""
       inkscape:color="rgb(0,0,255)" />
    <sodipodi:guide
       position="534.99999,0"
       orientation="1,0"
       id="guide973"
       inkscape:locked="false"
       inkscape:label=""
       inkscape:color="rgb(0,0,255)" />
    <sodipodi:guide
       position="704.99999,0"
       orientation="1,0"
       id="guide975"
       inkscape:locked="false"
       inkscape:label=""
       inkscape:color="rgb(0,0,255)" />
    <sodipodi:guide
       position="874.99999,0"
       orientation="1,0"
       id="guide977"
       inkscape:locked="false"
       inkscape:label=""
       inkscape:color="rgb(0,0,255)" />
    <sodipodi:guide
       position="359.41319,55.293587"
       orientation="1,0"
       id="guide845"
       inkscape:locked="false" />
  </sodipodi:namedview>
  <metadata
     id="metadata2281">
    <rdf:RDF>
      <cc:Work
         rdf:about="">
        <dc:format>image/svg+xml</dc:format>
        <dc:type
           rdf:resource="http://purl.org/dc/dcmitype/StillImage" />
        <dc:title></dc:title>
      </cc:Work>
    </rdf:RDF>
  </metadata>
  <g
     inkscape:label="Layer 1"
     inkscape:groupmode="layer"
     id="layer1"
     transform="translate(0,-97)">
    <circle
       r="75"
       cy="222"
       cx="75"
       id="circle941"
       style="opacity:1;fill:#000000;fill-opacity:1;fill-rule:nonzero;stroke:none;stroke-width:0.55677694;stroke-linecap:round;stroke-linejoin:round;stroke-miterlimit:4;stroke-dasharray:none;stroke-opacity:1;paint-order:stroke fill markers" />
    <path
       style="opacity:1;fill:#000000;fill-opacity:1;fill-rule:nonzero;stroke:none;stroke-width:0.55677694;stroke-linecap:round;stroke-linejoin:round;stroke-miterlimit:4;stroke-dasharray:none;stroke-opacity:1;paint-order:stroke fill markers"
       d="m 866.80253,147.03829 a 75,75 0 0 0 -5.3077,0.0186 75,75 0 0 0 -22.01725,4.20956 75,75 0 0 0 -45.79824,95.66858 75,75 0 0 0 95.66857,45.79824 75,75 0 0 0 46.13103,-47.04467 L 888.10045,229.89576 A 24.999998,24.999998 0 0 1 864.413,247.00015 24.999998,24.999998 0 0 1 840.72556,229.89576 l 23.68744,-7.89564 23.68745,-7.89564 47.41312,-15.80472 a 75,75 0 0 0 -0.36742,-1.23507 75,75 0 0 0 -68.34362,-50.0264 z"
       id="circle1199"
       inkscape:connector-curvature="0" />
    <path
       style="opacity:1;fill:#000000;fill-opacity:1;fill-rule:nonzero;stroke:none;stroke-width:0.55677694;stroke-linecap:round;stroke-linejoin:round;stroke-miterlimit:4;stroke-dasharray:none;stroke-opacity:1;paint-order:stroke fill markers"
       d="m 449.41301,147.00005 v 75.00007 a 75,75 0 0 0 75.00009,75.00007 75,75 0 0 0 75.00006,-75.00007 v -75.00007 h -50.00003 v 4.37337 70.6267 a 24.999999,24.999999 0 0 1 -25.00003,25.00003 24.999999,24.999999 0 0 1 -25.00003,-25.00003 v -70.61533 -4.38474 z"
       id="circle1203"
       inkscape:connector-curvature="0" />
    <rect
       y="97.000122"
       x="379.41321"
       height="200"
       width="50"
       id="rect1205"
       style="opacity:1;fill:#000000;fill-opacity:1;fill-rule:nonzero;stroke:none;stroke-width:0.79048169;stroke-linecap:round;stroke-linejoin:round;stroke-miterlimit:4;stroke-dasharray:none;stroke-opacity:1;paint-order:stroke fill markers" />
    <path
       style="opacity:1;fill:#000000;fill-opacity:1;fill-rule:nonzero;stroke:none;stroke-width:0.79048169;stroke-linecap:round;stroke-linejoin:round;stroke-miterlimit:4;stroke-dasharray:none;stroke-opacity:1;paint-order:stroke fill markers"
       d="m 619.41299,97 v 125.00012 75.00007 h 50.00003 v -4.37337 a 75,75 0 0 0 25.00003,4.37337 75,75 0 0 0 75.00006,-75.00007 75,75 0 0 0 -75.00006,-75.00007 75,75 0 0 0 -25.00003,4.38474 V 97 Z m 75.00006,100.0001 a 24.999999,24.999999 0 0 1 25.00003,25.00002 24.999999,24.999999 0 0 1 -25.00003,25.00003 24.999999,24.999999 0 0 1 -25.00003,-25.00003 24.999999,24.999999 0 0 1 25.00003,-25.00002 z"
       id="rect1207"
       inkscape:connector-curvature="0" />
    <path
       style="opacity:1;fill:#000000;fill-opacity:1;fill-rule:nonzero;stroke:none;stroke-width:4.18475676;stroke-linecap:round;stroke-linejoin:round;stroke-miterlimit:4;stroke-dasharray:none;stroke-opacity:1;paint-order:stroke fill markers"
       d="M 1020.4727,0 A 377.95276,377.95276 0 0 0 642.51953,377.95312 377.95276,377.95276 0 0 0 1020.4727,755.90625 377.95276,377.95276 0 0 0 1358.4121,546.92188 l -169.1094,-84.55469 a 188.97638,188.97638 0 0 1 -168.83,104.5625 188.97638,188.97638 0 0 1 -188.97661,-188.97657 188.97638,188.97638 0 0 1 188.97661,-188.97656 188.97638,188.97638 0 0 1 168.9707,104.49219 l 168.6894,-84.3457 A 377.95276,377.95276 0 0 0 1020.4727,0 Z"
       transform="matrix(0.26458333,0,0,0.26458333,0,97)"
       id="circle1223"
       inkscape:connector-curvature="0" />
  </g>
</svg>
